# xmcd
#
# Track frame offsets:
#	150
#	41413
#	67355
#	90485
#	117835
#	129228
#	161593
#	211693
#	240925
#
# Disc length: 3687 seconds
#
# Revision: 1
# Processed by: cddbd v1.5.1PL0 Copyright (c) Steve Scherf et al.
# Submitted via: CDex 1.50Beta5
#
DISCID=6d0e6509
DTITLE=EMIL GILELS - BEETHOVEN:PIANO SONATAS NOS.8,14&23
DYEAR=1900
DGENRE=Classical
TTITLE0=EMIL GILELS/グラーヴェーアレグロ・ディ・モルト・エ・コン・ブリオ
TTITLE1=アダージョ・カンタービレ
TTITLE2=ピアノソナタ第8番「悲愴」第3楽章
TTITLE3=EMIL GILELS/月光:アダージョ・ソステヌート
TTITLE4=アレグレット
TTITLE5=ブレスト・アジタート
TTITLE6=EMIL GILELS/熱情:アレグロ・アッサイ
TTITLE7=アンダンテ・コン・モート
TTITLE8=アレグロ・マ・ノン・トロッポープレスト
EXTD=
EXTT0=
EXTT1=
EXTT2=
EXTT3=
EXTT4=
EXTT5=
EXTT6=
EXTT7=
EXTT8=
PLAYORDER=
